<svg width="64" height="64" viewBox="0 0 64 64" fill="none" xmlns="http://www.w3.org/2000/svg">
<path d="M48.8695 11.44C48.5805 11.1368 48.233 10.8954 47.848 10.7304C47.4629 10.5655 47.0484 10.4805 46.6295 10.4805C46.2107 10.4805 45.7961 10.5655 45.4111 10.7304C45.0261 10.8954 44.6785 11.1368 44.3895 11.44C43.4295 12.08 43.2695 13.04 43.2695 14V50.32C43.2695 51.1687 43.6067 51.9826 44.2068 52.5827C44.8069 53.1828 45.6208 53.52 46.4695 53.52C47.3182 53.52 48.1322 53.1828 48.7323 52.5827C49.3324 51.9826 49.6695 51.1687 49.6695 50.32V21.36L52.0695 23.76C52.3585 24.0632 52.7061 24.3046 53.0911 24.4695C53.4761 24.6345 53.8907 24.7195 54.3095 24.7195C54.7284 24.7195 55.1429 24.6345 55.528 24.4695C55.913 24.3046 56.2605 24.0632 56.5495 23.76C57.8295 22.64 57.8295 20.56 56.7095 19.28L48.8695 11.44Z" fill="black"/>
<path d="M35.2707 45.6797H9.6707C8.82201 45.6797 8.00808 46.0168 7.40796 46.6169C6.80784 47.2171 6.4707 48.031 6.4707 48.8797C6.4707 49.7284 6.80784 50.5423 7.40796 51.1424C8.00808 51.7425 8.82201 52.0797 9.6707 52.0797H35.2707C36.1194 52.0797 36.9333 51.7425 37.5334 51.1424C38.1336 50.5423 38.4707 49.7284 38.4707 48.8797C38.4707 48.031 38.1336 47.2171 37.5334 46.6169C36.9333 46.0168 36.1194 45.6797 35.2707 45.6797Z" fill="black"/>
<path d="M35.2707 20.0801H9.6707C8.82201 20.0801 8.00808 20.4172 7.40796 21.0173C6.80784 21.6175 6.4707 22.4314 6.4707 23.2801C6.4707 24.1288 6.80784 24.9427 7.40796 25.5428C8.00808 26.1429 8.82201 26.4801 9.6707 26.4801H35.2707C36.1194 26.4801 36.9333 26.1429 37.5334 25.5428C38.1336 24.9427 38.4707 24.1288 38.4707 23.2801C38.4707 22.4314 38.1336 21.6175 37.5334 21.0173C36.9333 20.4172 36.1194 20.0801 35.2707 20.0801Z" fill="black"/>
<path d="M9.6707 39.2799H32.0707C32.9194 39.2799 33.7333 38.9427 34.3334 38.3426C34.9336 37.7425 35.2707 36.9286 35.2707 36.0799C35.2707 35.2312 34.9336 34.4173 34.3334 33.8171C33.7333 33.217 32.9194 32.8799 32.0707 32.8799H9.6707C8.82201 32.8799 8.00808 33.217 7.40796 33.8171C6.80784 34.4173 6.4707 35.2312 6.4707 36.0799C6.4707 36.9286 6.80784 37.7425 7.40796 38.3426C8.00808 38.9427 8.82201 39.2799 9.6707 39.2799Z" fill="black"/>
</svg>
