<svg width="297" height="143" viewBox="0 0 297 143" fill="none" xmlns="http://www.w3.org/2000/svg">
<path d="M254.069 127.534C253.596 127.297 252.862 127.165 251.864 127.165C251.628 127.165 251.366 127.187 251.104 127.215V130.746C251.523 130.773 251.839 130.801 252.048 130.801C252.993 130.801 253.675 130.669 254.122 130.405C254.568 130.141 254.777 129.613 254.777 128.848C254.777 128.216 254.541 127.798 254.069 127.534Z" fill="#0C8DCE"/>
<path d="M239.374 127.034C238.377 127.034 237.616 127.43 237.065 128.244C236.54 129.063 236.251 130.141 236.251 131.511C236.251 132.985 236.514 134.145 237.013 134.965C237.512 135.779 238.246 136.175 239.191 136.175C240.319 136.175 241.185 135.779 241.762 134.965C242.339 134.173 242.655 133.012 242.655 131.483C242.681 128.535 241.579 127.034 239.374 127.034Z" fill="#0C8DCE"/>
<path d="M165.635 133.672H168.679L167.157 128.981L165.635 133.672Z" fill="#0C8DCE"/>
<path d="M147.346 127.034C146.349 127.034 145.588 127.43 145.037 128.244C144.512 129.063 144.223 130.141 144.223 131.511C144.223 132.985 144.485 134.145 144.984 134.965C145.483 135.779 146.217 136.175 147.162 136.175C148.29 136.175 149.13 135.779 149.734 134.965C150.337 134.173 150.626 133.012 150.626 131.483C150.626 128.535 149.55 127.034 147.346 127.034Z" fill="#0C8DCE"/>
<path d="M106.96 133.672H110.004L108.482 128.981L106.96 133.672Z" fill="#0C8DCE"/>
<path d="M0 118.734V143H296.973L297 118.734H0ZM14.354 133.359C14.0916 133.359 13.7505 133.331 13.3306 133.304V137.995H11.0739V125.296C12.5696 125.241 13.4356 125.186 13.698 125.186C15.6923 125.186 17.1619 125.505 18.0803 126.11C18.9987 126.715 19.4711 127.693 19.4711 128.98C19.4973 131.906 17.7654 133.359 14.354 133.359ZM30.3875 137.968L27.0023 132.726C26.6612 132.726 26.1889 132.699 25.5853 132.671V137.995H23.2499V125.268C23.381 125.268 23.8534 125.241 24.7194 125.186C25.5591 125.136 26.2414 125.136 26.7662 125.136C29.9939 125.136 31.5946 126.374 31.5946 128.876C31.5946 129.641 31.3847 130.328 30.9386 130.933C30.4925 131.538 29.9414 131.984 29.2591 132.248L33.0116 137.968H30.3875ZM43.928 127.27H38.0763V130.246H42.2486V132.171H38.0763V135.993H43.8231V137.995H35.8194V125.268H43.9018V127.27H43.928ZM57.3111 137.995L55.9993 131.142L53.4537 138.149H52.6402L50.0948 131.142L48.7303 137.995H46.5522L49.0976 125.268H50.2784L53.0076 133.832L55.6842 125.268H56.865L59.4368 137.995H57.3111ZM64.9214 137.968H62.6642V125.241H64.9214V137.968ZM78.7506 134.013C78.7506 135.333 78.304 136.362 77.4383 137.099C76.5721 137.836 75.3912 138.204 73.948 138.204C72.4784 138.204 71.3504 137.836 70.5369 137.126C69.7493 136.411 69.3297 135.36 69.3297 134.013V125.268H71.5863V133.881C71.5863 134.569 71.7964 135.124 72.2161 135.542C72.6363 135.965 73.2132 136.202 73.9222 136.202C74.7356 136.202 75.3654 135.993 75.8114 135.57C76.2575 135.146 76.4934 134.569 76.4934 133.859V125.268H78.7506V134.013ZM92.7371 137.995L91.4248 131.142L88.8794 138.149H88.0659L85.5206 131.142L84.156 137.995H81.978L84.5234 125.268H85.7043L88.4334 133.832L91.1102 125.268H92.291L94.8887 137.995H92.7371ZM111.604 137.968L110.686 135.383H106.356L105.464 137.968H102.971L108.009 125.081H108.98L114.071 137.968H111.604ZM126.588 134.013C126.588 135.333 126.142 136.362 125.276 137.099C124.41 137.836 123.23 138.204 121.786 138.204C120.317 138.204 119.188 137.836 118.375 137.126C117.588 136.411 117.168 135.36 117.168 134.013V125.268H119.425V133.881C119.425 134.569 119.634 135.124 120.054 135.542C120.474 135.965 121.052 136.202 121.76 136.202C122.573 136.202 123.203 135.993 123.649 135.57C124.095 135.146 124.332 134.569 124.332 133.859V125.268H126.588V134.013ZM140.313 127.27H136.114V137.995H133.857V127.27H129.842V125.268H140.339V127.27H140.313ZM151.465 136.383C150.468 137.599 149.025 138.204 147.188 138.204C145.482 138.204 144.196 137.599 143.278 136.411C142.359 135.229 141.913 133.595 141.913 131.511C141.913 129.696 142.412 128.167 143.383 126.902C144.38 125.664 145.692 125.032 147.345 125.032C149.182 125.032 150.573 125.609 151.518 126.742C152.489 127.875 152.961 129.454 152.961 131.511C152.961 133.568 152.462 135.173 151.465 136.383ZM170.254 137.968L169.336 135.383H165.006L164.113 137.968H161.621L166.659 125.081H167.656L172.747 137.968H170.254ZM180.829 138.204C179.071 138.204 177.68 137.627 176.709 136.439C175.739 135.278 175.24 133.672 175.24 131.643C175.24 129.773 175.791 128.194 176.867 126.929C177.943 125.664 179.333 125.032 181.039 125.032C182.483 125.032 183.664 125.318 184.529 125.928L183.611 127.798C183.113 127.298 182.299 127.034 181.197 127.034C180.147 127.034 179.281 127.479 178.599 128.376C177.917 129.272 177.602 130.378 177.602 131.747C177.602 133.117 177.917 134.2 178.546 134.992C179.176 135.779 180.016 136.175 181.039 136.175C182.246 136.175 183.165 135.757 183.847 134.882L184.897 136.703C183.952 137.704 182.614 138.204 180.829 138.204ZM193.451 138.204C191.693 138.204 190.303 137.627 189.331 136.439C188.361 135.278 187.862 133.672 187.862 131.643C187.862 129.773 188.413 128.194 189.489 126.929C190.565 125.664 191.955 125.032 193.662 125.032C195.105 125.032 196.286 125.318 197.151 125.928L196.233 127.798C195.734 127.298 194.921 127.034 193.819 127.034C192.769 127.034 191.903 127.479 191.221 128.376C190.539 129.272 190.223 130.378 190.223 131.747C190.223 133.117 190.539 134.2 191.168 134.992C191.798 135.779 192.638 136.175 193.662 136.175C194.868 136.175 195.787 135.757 196.469 134.882L197.519 136.703C196.548 137.704 195.21 138.204 193.451 138.204ZM209.144 127.27H203.318V130.246H207.491V132.171H203.318V135.993H209.065V137.995H201.061V125.268H209.144V127.27ZM218.748 137.203C217.935 137.863 216.859 138.204 215.494 138.204C214.313 138.204 213.238 137.891 212.293 137.28L213.133 135.251C214.025 135.883 214.89 136.202 215.757 136.202C217.068 136.202 217.725 135.729 217.725 134.805C217.725 134.382 217.567 133.964 217.252 133.568C216.937 133.172 216.308 132.726 215.336 132.248C214.366 131.747 213.71 131.351 213.369 131.037C213.028 130.718 212.765 130.35 212.581 129.905C212.398 129.481 212.319 128.981 212.319 128.453C212.319 127.479 212.687 126.665 213.395 126.005C214.103 125.345 215.022 125.032 216.15 125.032C217.619 125.032 218.696 125.296 219.378 125.846L218.696 127.798C217.908 127.243 217.068 126.951 216.203 126.951C215.678 126.951 215.284 127.083 214.995 127.374C214.707 127.638 214.576 128.007 214.576 128.453C214.576 129.168 215.389 129.932 216.99 130.719C217.83 131.142 218.459 131.51 218.827 131.879C219.194 132.225 219.483 132.644 219.693 133.117C219.877 133.595 219.981 134.096 219.981 134.673C219.955 135.674 219.562 136.516 218.748 137.203ZM229.559 137.203C228.746 137.863 227.67 138.204 226.306 138.204C225.125 138.204 224.049 137.891 223.104 137.28L223.944 135.251C224.836 135.883 225.702 136.202 226.568 136.202C227.88 136.202 228.536 135.729 228.536 134.805C228.536 134.382 228.379 133.964 228.064 133.568C227.749 133.172 227.119 132.726 226.148 132.248C225.177 131.747 224.521 131.351 224.18 131.037C223.839 130.718 223.577 130.35 223.393 129.905C223.209 129.481 223.13 128.981 223.13 128.453C223.13 127.479 223.498 126.665 224.206 126.005C224.915 125.345 225.833 125.032 226.962 125.032C228.431 125.032 229.507 125.296 230.189 125.846L229.507 127.798C228.72 127.243 227.88 126.951 227.014 126.951C226.489 126.951 226.096 127.083 225.807 127.374C225.519 127.638 225.387 128.007 225.387 128.453C225.387 129.168 226.201 129.932 227.801 130.719C228.641 131.142 229.271 131.51 229.638 131.879C230.005 132.225 230.294 132.644 230.504 133.117C230.714 133.595 230.793 134.096 230.793 134.673C230.793 135.674 230.373 136.516 229.559 137.203ZM243.494 136.383C242.497 137.599 241.053 138.204 239.216 138.204C237.511 138.204 236.225 137.599 235.306 136.411C234.388 135.229 233.942 133.595 233.942 131.511C233.942 129.696 234.441 128.167 235.438 126.902C236.435 125.664 237.747 125.032 239.4 125.032C241.237 125.032 242.628 125.609 243.572 126.742C244.543 127.875 245.016 129.454 245.016 131.511C245.016 133.568 244.491 135.173 243.494 136.383ZM255.906 137.968L252.521 132.726C252.18 132.726 251.707 132.699 251.103 132.671V137.995H248.768V125.268C248.9 125.268 249.398 125.241 250.238 125.186C251.078 125.136 251.76 125.136 252.284 125.136C255.512 125.136 257.113 126.374 257.113 128.876C257.113 129.641 256.903 130.328 256.457 130.933C256.011 131.538 255.46 131.984 254.777 132.248L258.53 137.968H255.906ZM263.647 137.968H261.39V125.241H263.647V137.968ZM276.138 127.27H270.286V130.246H274.459V132.171H270.286V135.993H276.033V137.995H268.056V125.268H276.138V127.27ZM285.742 137.203C284.929 137.863 283.853 138.204 282.488 138.204C281.307 138.204 280.231 137.891 279.287 137.28L280.126 135.251C281.019 135.883 281.885 136.202 282.751 136.202C284.063 136.202 284.719 135.729 284.719 134.805C284.719 134.382 284.562 133.964 284.246 133.568C283.932 133.172 283.302 132.726 282.331 132.248C281.36 131.747 280.704 131.351 280.363 131.037C280.022 130.718 279.759 130.35 279.576 129.905C279.392 129.481 279.313 128.981 279.313 128.453C279.313 127.479 279.68 126.665 280.389 126.005C281.098 125.345 282.016 125.032 283.144 125.032C284.614 125.032 285.69 125.296 286.372 125.846L285.69 127.798C284.903 127.243 284.063 126.951 283.197 126.951C282.672 126.951 282.279 127.083 281.99 127.374C281.701 127.638 281.57 128.007 281.57 128.453C281.57 129.168 282.384 129.932 283.984 130.719C284.824 131.142 285.454 131.51 285.821 131.879C286.188 132.225 286.477 132.644 286.687 133.117C286.871 133.595 286.976 134.096 286.976 134.673C286.949 135.674 286.556 136.516 285.742 137.203Z" fill="#0C8DCE"/>
<path d="M28.5505 127.534C28.0781 127.297 27.3433 127.165 26.3462 127.165C26.11 127.165 25.8476 127.187 25.5852 127.215V130.746C26.005 130.773 26.3199 130.801 26.5299 130.801C27.4746 130.801 28.1568 130.669 28.6029 130.405C29.049 130.141 29.259 129.613 29.259 128.848C29.2327 128.216 29.0228 127.798 28.5505 127.534Z" fill="#0C8DCE"/>
<path d="M14.0133 127.165C13.7772 127.165 13.541 127.187 13.3311 127.215V131.274C13.6984 131.329 14.0133 131.329 14.2233 131.329C15.2466 131.329 16.0077 131.142 16.48 130.801C16.9524 130.46 17.1885 129.904 17.1885 129.112C17.1885 127.82 16.1389 127.165 14.0133 127.165Z" fill="#0C8DCE"/>
<path d="M52.8759 0.0529785H27.9204V20.3161H52.8759V0.0529785Z" fill="#0C8DCE"/>
<path d="M27.921 69.7216C27.921 69.7216 28.4196 79.9191 19.2876 79.9191C10.1556 79.9191 2.9917 79.8135 2.9917 79.8135V103.476H19.0777C19.0777 103.476 52.8765 103.871 52.8765 68.3779V29.1959H27.921V69.7216Z" fill="#0C8DCE"/>
<path d="M149.052 52.963C149.052 52.963 143.961 52.3569 143.724 48.5366C143.489 44.7157 148.238 44.7157 148.238 44.7157H165.426L165.4 27.7202H136.797C125.329 28.3263 117.746 35.836 117.404 48.8001C116.669 62.4753 121.944 68.9311 130.473 71.487C139.001 74.0692 141.809 73.7266 142.019 76.9941C142.754 81.2363 137.085 80.9728 137.085 80.9728H116.696L116.669 99.2334H148.291C165.347 99.2334 167.316 85.2414 167.316 85.2414C167.316 85.2414 168.286 84.3454 168.286 69.7743C168.313 55.2026 149.052 52.963 149.052 52.963Z" fill="#0C8DCE"/>
<path d="M270.207 82.6061L270.233 0H245.698V82.5803V104.661H270.233H294.795V82.5803L270.207 82.6061Z" fill="#0C8DCE"/>
<path d="M64.6331 104.661H72.0856L105.753 0H98.7468L64.6331 104.661Z" fill="#0C8DCE"/>
<path d="M186.812 104.661H194.264L227.958 0H220.952L186.812 104.661Z" fill="#0C8DCE"/>
</svg>
